<?xml version="1.0" encoding="UTF-8" standalone="no"?>
<!DOCTYPE svg PUBLIC "-//W3C//DTD SVG 1.1//EN" "http://www.w3.org/Graphics/SVG/1.1/DTD/svg11.dtd">
<svg width="294px" height="294px" viewBox="0 0 294 294" fill="none" xmlns="http://www.w3.org/2000/svg">
  <path d="M115.716 281.372L106.912 241.847C106.435 239.703 105.514 237.683 104.208 235.917C102.901 234.152 101.239 232.68 99.3283 231.597C97.4175 230.515 95.3007 229.845 93.1149 229.632C90.9291 229.419 88.7229 229.667 86.6389 230.36L48.2246 243.132C34.2091 247.792 22.1036 232.276 30.0307 219.814L51.7583 185.654C52.9369 183.801 53.7135 181.722 54.038 179.549C54.3626 177.377 54.2277 175.161 53.6422 173.045C53.0567 170.928 52.0336 168.958 50.639 167.261C49.2444 165.565 47.5093 164.18 45.546 163.196L9.34916 145.059C-3.85499 138.445 -1.44426 118.912 12.9721 115.704L52.4925 106.912C54.6361 106.435 56.6558 105.513 58.421 104.207C60.1863 102.9 61.6577 101.238 62.7403 99.3269C63.8228 97.4161 64.4924 95.2994 64.7058 93.1136C64.9191 90.9277 64.6714 88.7214 63.9788 86.6373L51.2083 48.2206C46.5492 34.2043 62.0641 22.095 74.5261 30.0224L108.682 51.7509C110.535 52.93 112.615 53.707 114.787 54.0317C116.959 54.3565 119.175 54.2216 121.292 53.636C123.409 53.0504 125.379 52.027 127.075 50.6321C128.772 49.2371 130.156 47.5016 131.14 45.5378L149.276 9.34093C155.892 -3.86388 175.424 -1.45331 178.632 12.964L187.423 52.4841C187.899 54.6281 188.82 56.6482 190.127 58.4137C191.433 60.1793 193.095 61.651 195.006 62.7337C196.917 63.8163 199.034 64.4859 201.219 64.699C203.405 64.9121 205.612 64.664 207.695 63.9709L246.11 51.1988C260.125 46.5392 272.23 62.0574 264.303 74.5204L242.576 108.679C241.397 110.533 240.621 112.612 240.296 114.784C239.971 116.957 240.106 119.173 240.692 121.289C241.277 123.406 242.3 125.376 243.695 127.073C245.09 128.769 246.825 130.154 248.788 131.138L285.002 149.266C298.206 155.883 295.796 175.416 281.38 178.621L241.859 187.413C239.716 187.89 237.696 188.812 235.931 190.118C234.165 191.425 232.694 193.087 231.611 194.998C230.529 196.909 229.859 199.026 229.646 201.212C229.433 203.397 229.68 205.604 230.373 207.688L243.143 246.104C247.802 260.121 232.288 272.227 219.826 264.3L185.669 242.571C183.817 241.392 181.737 240.615 179.565 240.291C177.393 239.966 175.177 240.101 173.06 240.686C170.943 241.272 168.973 242.295 167.277 243.69C165.58 245.085 164.196 246.821 163.212 248.785L145.076 284.984C138.445 298.198 118.924 295.789 115.716 281.372Z" fill="#C4B8F0"/>
</svg>
